#!OML:ASF H:\IndianDance\Patient Classification 1\Patient 1\Session 1\dancer.ASF
:FULLY-SPECIFIED
:DEGREES
1493
root 0.277615 14.8664 -11.7272 -168.78 -12.1863 -170.607
lowerback -6.60704 -5.64167 2.7537
upperback -11.138 -9.36588 9.25165
thorax -6.95503 -5.38229 8.32847
lowerneck -6.75573 -14.4689 -10.9832
upperneck 12.8998 -18.8531 5.35221
head 6.57272 -9.2384 1.71355
rclavicle 7.39479e-014 1.145e-013
rhumerus 28.2103 -47.9603 -52.2589
rradius 22.5016
rwrist -58.2377
rhand -27.1019 -26.5775
rfingers 7.12502
rthumb -0.518465 -56.5566
lclavicle 7.39479e-014 1.145e-013
lhumerus 22.1572 -55.5292 -4.69618
lradius 108.314
lwrist -15.634
lhand -61.864 -390.523
lfingers 7.12502
lthumb -33.9245 -363.722
rfemur -33.1968 -1.23024 27.4019
rtibia 50.3275
rfoot -20.704 -11.6685
rtoes 2.94642
lfemur -5.94025 23.8293 -36.5509
ltibia 46.0361
lfoot 9.12279 4.38791
ltoes 3.60819
1494
root 0.262582 14.8672 -11.6965 -168.71 -12.5842 -170.623
lowerback -6.39846 -5.68252 2.56539
upperback -11.0825 -9.35873 9.15871
thorax -6.99922 -5.34736 8.35338
lowerneck -6.98998 -14.3346 -10.875
upperneck 12.865 -18.677 5.42703
head 6.58311 -9.14102 1.72785
rclavicle 5.62561e-014 -1.09729e-013
rhumerus 26.6478 -46.3765 -50.772
rradius 22.8883
rwrist -57.8231
rhand -28.0511 -28.1948
rfingers 7.12502
rthumb -1.43525 -58.1697
lclavicle 5.62561e-014 -1.09729e-013
lhumerus 21.9766 -55.1091 -4.37286
lradius 107.8
lwrist -15.001
lhand -61.3438 -390.267
lfingers 7.12502
lthumb -33.4302 -363.359
rfemur -33.4461 -1.41187 27.286
rtibia 50.405
rfoot -20.5097 -11.7026
rtoes 2.28175
lfemur -7.37357 24.3081 -35.9783
ltibia 50.3248
lfoot 8.22907 3.37927
ltoes 2.40903
1495
root 0.245364 14.8696 -11.6637 -168.777 -13.0174 -170.627
lowerback -6.04963 -5.72506 2.41731
upperback -10.9684 -9.32872 9.02814
thorax -7.07293 -5.29507 8.33019
lowerneck -7.23368 -14.2026 -10.7624
upperneck 12.8016 -18.5041 5.49987
head 6.58559 -9.04574 1.74104
rclavicle 5.66536e-014 -1.90833e-014
rhumerus 24.6839 -44.2225 -48.8366
rradius 23.442
rwrist -57.5105
rhand -29.0366 -29.7251
rfingers 7.12502
rthumb -2.38707 -59.6915
lclavicle 5.66536e-014 -1.90833e-014
lhumerus 21.8175 -54.6832 -4.07117
lradius 107.329
lwrist -14.0414
lhand -60.8177 -389.637
lfingers 7.12502
lthumb -32.93 -362.622
rfemur -33.5226 -1.64851 27.1806
rtibia 50.4329
rfoot -20.3103 -11.7596
rtoes 1.70132
lfemur -8.77898 24.6783 -35.2476
ltibia 54.8442
lfoot 7.45049 2.20995
ltoes 1.25815
1496
root 0.225331 14.8731 -11.6292 -168.996 -13.471 -170.612
lowerback -5.54896 -5.76112 2.3184
upperback -10.7976 -9.26667 8.86101
thorax -7.18756 -5.22186 8.25773
lowerneck -7.4576 -14.0657 -10.6437
upperneck 12.6963 -18.324 5.55423
head 6.56841 -8.9496 1.7518
rclavicle 8.22969e-014 -1.06549e-013
rhumerus 22.4565 -41.5179 -46.5957
rradius 24.1801
rwrist -57.2714
rhand -29.9606 -31.1948
rfingers 7.12502
rthumb -3.27939 -61.1494
lclavicle 8.22969e-014 -1.06549e-013
lhumerus 21.7033 -54.2594 -3.7984
lradius 106.904
lwrist -12.7245
lhand -60.2525 -388.621
lfingers 7.12502
lthumb -32.3922 -361.494
rfemur -33.4084 -1.94007 27.0888
rtibia 50.414
rfoot -20.1126 -11.8313
rtoes 1.20641
lfemur -10.122 24.9623 -34.3385
ltibia 59.5248
lfoot 6.73216 0.930109
ltoes 0.156877
1497
root 0.20297 14.8758 -11.5933 -169.363 -13.9178 -170.579
lowerback -4.89959 -5.77732 2.26309
upperback -10.577 -9.1582 8.65804
thorax -7.35023 -5.12138 8.14032
lowerneck -7.65142 -13.9225 -10.5152
upperneck 12.555 -18.1329 5.57148
head 6.52942 -8.85206 1.755
rclavicle -1.98785e-015 3.18055e-014
rhumerus 20.1015 -38.3367 -44.1998
rradius 25.1257
rwrist -57.0943
rhand -30.8148 -32.483
rfingers 7.12502
rthumb -4.10432 -62.4232
lclavicle -1.98785e-015 3.18055e-014
lhumerus 21.6569 -53.8418 -3.552
lradius 106.523
lwrist -11.0387
lhand -59.588 -387.224
lfingers 7.12502
lthumb -31.7596 -359.97
rfemur -33.1212 -2.26785 27.0066
rtibia 50.3684
rfoot -19.9221 -11.9054
rtoes 0.803956
lfemur -11.3873 25.2155 -33.2509
ltibia 64.2992
lfoot 6.00947 -0.408843
ltoes -1.01174
1498
root 0.178675 14.8765 -11.5561 -169.864 -14.3356 -170.527
lowerback -4.11658 -5.7622 2.24849
upperback -10.3127 -8.99243 8.42317
thorax -7.55959 -4.9897 7.98112
lowerneck -7.82429 -13.7745 -10.3774
upperneck 12.4045 -17.9305 5.53485
head 6.47742 -8.75331 1.74405
rclavicle -1.68967e-014 -5.725e-014
rhumerus 17.73 -34.7864 -41.7852
rradius 26.3164
rwrist -56.9579
rhand -31.5944 -33.5582
rfingers 7.12502
rthumb -4.85711 -63.4825
lclavicle -1.68967e-014 -5.725e-014
lhumerus 21.6882 -53.4202 -3.31407
lradius 106.188
lwrist -8.99805
lhand -58.7408 -385.419
lfingers 7.12502
lthumb -30.9523 -358.008
rfemur -32.6884 -2.60849 26.9303
rtibia 50.3191
rfoot -19.7376 -11.9813
rtoes 0.46727
lfemur -12.5653 25.4806 -31.9786
ltibia 69.1087
lfoot 5.2247 -1.70614
ltoes -1.97525
1499
root 0.153148 14.8745 -11.5177 -170.474 -14.7111 -170.456
lowerback -3.2265 -5.71012 2.26648
upperback -10.0131 -8.76704 8.16255
thorax -7.80777 -4.82729 7.78591
lowerneck -7.98797 -13.6187 -10.2296
upperneck 12.2609 -17.7116 5.44161
head 6.419 -8.65047 1.71719
rclavicle 7.27552e-014 2.70347e-014
rhumerus 15.3907 -30.927 -39.4162
rradius 27.8045
rwrist -56.9373
rhand -32.3437 -34.3084
rfingers 7.12502
rthumb -5.58059 -64.2149
lclavicle 7.27552e-014 2.70347e-014
lhumerus 21.7905 -52.9758 -3.06153
lradius 105.919
lwrist -6.59493
lhand -57.5971 -383.269
lfingers 7.12502
lthumb -29.8614 -355.656
rfemur -32.1525 -2.9423 26.857
rtibia 50.2897
rfoot -19.5657 -12.0477
rtoes 0.176857
lfemur -13.6623 25.7943 -30.5148
ltibia 73.8953
lfoot 4.39361 -2.92149
ltoes -2.81849
1500
root 0.126846 14.8693 -11.4782 -171.159 -15.0371 -170.365
lowerback -2.26552 -5.61974 2.3202
upperback -9.68817 -8.48616 7.88498
thorax -8.08316 -4.63897 7.55553
lowerneck -8.15809 -13.4528 -10.0795
upperneck 12.1435 -17.4726 5.29993
head 6.36446 -8.54068 1.67646
rclavicle 1.63003e-014 4.77083e-015
rhumerus 13.1778 -26.9937 -37.2386
rradius 29.5845
rwrist -56.8276
rhand -32.9971 -34.7378
rfingers 7.12502
rthumb -6.2114 -64.6267
lclavicle 1.63003e-014 4.77083e-015
lhumerus 21.9295 -52.49 -2.75734
lradius 105.72
lwrist -3.91219
lhand -56.1045 -380.882
lfingers 7.12502
lthumb -28.4361 -353.023
rfemur -31.5602 -3.24822 26.7886
rtibia 50.2964
rfoot -19.4056 -12.1029
rtoes -0.0755029
lfemur -14.6991 26.1704 -28.8449
ltibia 78.6119
lfoot 3.54069 -4.02397
ltoes -3.3287
1501
root 0.100164 14.8609 -11.4375 -171.879 -15.3101 -170.255
lowerback -1.27552 -5.49281 2.40779
upperback -9.35228 -8.15816 7.60149
thorax -8.37351 -4.43148 7.29579
lowerneck -8.34795 -13.2727 -9.93395
upperneck 12.0666 -17.207 5.11546
head 6.3215 -8.42029 1.62375
rclavicle 1.82882e-014 3.4191e-014
rhumerus 11.1162 -23.1315 -35.2987
rradius 31.6595
rwrist -56.5641
rhand -33.6075 -34.7989
rfingers 7.12502
rthumb -6.80072 -64.6697
lclavicle 1.82882e-014 3.4191e-014
lhumerus 22.0578 -51.9536 -2.368
lradius 105.593
lwrist -1.09043
lhand -54.2536 -378.28
lfingers 7.12502
lthumb -26.6661 -350.138
rfemur -30.9653 -3.51314 26.7263
rtibia 50.3496
rfoot -19.2511 -12.1455
rtoes -0.333809
lfemur -15.699 26.6263 -26.9666
ltibia 83.2029
lfoot 2.68742 -5.04611
ltoes -3.8161
1502
root 0.0731765 14.8498 -11.3961 -172.586 -15.5301 -170.136
lowerback -0.309847 -5.33203 2.52172
upperback -9.01728 -7.79207 7.31591
thorax -8.65689 -4.2112 7.00646
lowerneck -8.56065 -13.0772 -9.79594
upperneck 12.0304 -16.9149 4.9045
head 6.29266 -8.28814 1.56408
rclavicle 1.6032e-013 -1.66979e-014
rhumerus 9.19726 -19.4514 -33.6017
rradius 34.0327
rwrist -56.0801
rhand -34.1527 -34.5837
rfingers 7.12502
rthumb -7.32697 -64.4368
lclavicle 1.6032e-013 -1.66979e-014
lhumerus 22.1349 -51.356 -1.8759
lradius 105.555
lwrist 1.73907
lhand -52.0754 -375.651
lfingers 7.12502
lthumb -24.5798 -347.209
rfemur -30.417 -3.73072 26.6618
rtibia 50.4516
rfoot -19.1021 -12.1707
rtoes -0.593619
lfemur -16.6866 27.159 -24.8903
ltibia 87.6171
lfoot 1.85859 -6.01936
ltoes -4.22164
1503
root 0.0457666 14.8367 -11.3545 -173.239 -15.7004 -170.019
lowerback 0.5844 -5.14663 2.65085
upperback -8.69512 -7.40517 7.03402
thorax -8.9135 -3.98778 6.69417
lowerneck -8.79961 -12.8591 -9.65115
upperneck 12.0312 -16.5878 4.66724
head 6.2758 -8.13965 1.49649
rclavicle 4.84041e-014 -3.18055e-014
rhumerus 7.41481 -15.995 -32.1208
rradius 36.6966
rwrist -55.3964
rhand -34.6521 -34.0579
rfingers 7.12502
rthumb -7.80899 -63.8937
lclavicle 4.84041e-014 -3.18055e-014
lhumerus 22.1118 -50.7024 -1.26837
lradius 105.602
lwrist 4.41869
lhand -49.6593 -373.069
lfingers 7.12502
lthumb -22.262 -344.331
rfemur -29.9555 -3.90202 26.589
rtibia 50.5985
rfoot -18.9557 -12.1836
rtoes -0.873455
lfemur -17.6866 27.7626 -22.6314
ltibia 91.8068
lfoot 1.08224 -6.99587
ltoes -4.52106
1504
root 0.0175933 14.8227 -11.3132 -173.803 -15.8273 -169.92
lowerback 1.36774 -4.94233 2.78462
upperback -8.39606 -7.00888 6.75714
thorax -9.12762 -3.76718 6.36283
lowerneck -9.05959 -12.6186 -9.50361
upperneck 12.0678 -16.2266 4.41035
head 6.27095 -7.97514 1.42377
rclavicle 1.0138e-014 4.69132e-014
rhumerus 5.76454 -12.8308 -30.8478
rradius 39.5941
rwrist -54.3853
rhand -34.9306 -33.283
rfingers 7.12502
rthumb -8.07783 -63.1086
lclavicle 1.0138e-014 4.69132e-014
lhumerus 21.9544 -50.0032 -0.544203
lradius 105.75
lwrist 6.83736
lhand -47.0845 -370.646
lfingers 7.12502
lthumb -19.7885 -341.633
rfemur -29.6046 -4.04278 26.4969
rtibia 50.7789
rfoot -18.821 -12.171
rtoes -1.14456
lfemur -18.7209 28.426 -20.2149
ltibia 95.7286
lfoot 0.380518 -8.02121
ltoes -4.63052
1505
root -0.0118814 14.8088 -11.2729 -174.259 -15.9195 -169.861
lowerback 2.01841 -4.72464 2.90388
upperback -8.12674 -6.61273 6.48026
thorax -9.29027 -3.55277 6.01745
lowerneck -9.32459 -12.3509 -9.33427
upperneck 12.1229 -15.8269 4.12543
head 6.26777 -7.79289 1.34286
rclavicle -3.97569e-014 2.06736e-014
rhumerus 4.22972 -9.97527 -29.755
rradius 42.698
rwrist -53.089
rhand -35.1091 -32.1441
rfingers 7.12502
rthumb -8.25005 -61.963
lclavicle -3.97569e-014 2.06736e-014
lhumerus 21.6553 -49.2736 0.274878
lradius 106.015
lwrist 8.91663
lhand -44.4486 -368.47
lfingers 7.12502
lthumb -17.253 -339.216
rfemur -29.3678 -4.17176 26.3641
rtibia 50.9779
rfoot -18.7021 -12.1297
rtoes -1.38206
lfemur -19.7961 29.1328 -17.685
ltibia 99.3391
lfoot -0.242929 -9.10998
ltoes -4.62803
1506
root -0.0430369 14.7962 -11.2342 -174.605 -15.9872 -169.855
lowerback 2.5309 -4.5062 2.99259
upperback -7.88757 -6.23452 6.19882
thorax -9.39573 -3.35146 5.66501
lowerneck -9.58023 -11.8658 -9.14051
upperneck 12.1649 -15.4341 3.83012
head 6.25435 -7.7096 1.24805
rclavicle -3.42904e-014 5.84427e-014
rhumerus 2.81455 -7.41478 -28.8388
rradius 45.969
rwrist -51.5321
rhand -35.1615 -30.6717
rfingers 7.12502
rthumb -8.30066 -60.4886
lclavicle -3.42904e-014 5.84427e-014
lhumerus 21.1894 -48.5234 1.16849
lradius 106.414
lwrist 10.6329
lhand -41.8074 -366.577
lfingers 7.12502
lthumb -14.7096 -337.119
rfemur -29.2308 -4.30875 26.1782
rtibia 51.177
rfoot -18.5956 -12.0621
rtoes -1.60228
lfemur -20.9091 29.8648 -15.0739
ltibia 102.601
lfoot -0.765329 -10.2456
ltoes -4.39599
1507
root -0.0762242 14.7859 -11.1975 -174.851 -16.0412 -169.905
lowerback 2.92343 -4.29016 3.04076
upperback -7.68214 -5.87768 5.91443
thorax -9.45769 -3.16306 5.31847
lowerneck -9.82363 -11.5287 -8.8609
upperneck 12.2265 -14.9246 3.45736
head 6.23175 -7.46901 1.1385
rclavicle -1.40143e-014 6.08281e-014
rhumerus 1.50676 -5.11953 -28.0481
rradius 49.3506
rwrist -49.7253
rhand -35.1206 -28.7701
rfingers 7.12502
rthumb -8.26117 -58.5886
lclavicle -1.40143e-014 6.08281e-014
lhumerus 20.558 -47.7659 2.12349
lradius 106.972
lwrist 12.0096
lhand -39.1918 -365.002
lfingers 7.12502
lthumb -12.1886 -335.377
rfemur -29.1671 -4.4753 25.9336
rtibia 51.3577
rfoot -18.4979 -11.9666
rtoes -1.82519
lfemur -22.0383 30.6079 -12.415
ltibia 105.476
lfoot -1.19692 -11.3869
ltoes -4.05111
